# Created by Open3D 
# object name: box5
# number of vertices: 8
# number of triangles: 12
v 0 0 0
vn -0.408248 -0.408248 -0.816497
v 0.3 0 0
vn 0.666667 -0.666667 -0.333333
v 0.3 0.3 0
vn 0.408248 0.408248 -0.816497
v 0 0.3 0
vn -0.666667 0.666667 -0.333333
v 0 0 0.3
vn -0.666667 -0.666667 0.333333
v 0.3 0 0.3
vn 0.408248 -0.408248 0.816497
v 0.3 0.3 0.3
vn 0.666667 0.666667 0.333333
v 0 0.3 0.3
vn -0.408248 0.408248 0.816497
f 1//1 3//3 2//2
f 1//1 4//4 3//3
f 2//2 3//3 7//7
f 2//2 7//7 6//6
f 6//6 7//7 8//8
f 6//6 8//8 5//5
f 5//5 8//8 4//4
f 5//5 4//4 1//1
f 4//4 8//8 7//7
f 4//4 7//7 3//3
f 2//2 6//6 5//5
f 2//2 5//5 1//1
