o base_link
usemtl Mat_1
v 198.20846557617188 -6.069282022894444e-15 135.38153076171875
v 198.20846557617188 1.190944756278723e-14 -158.2333984375
v 199.3003692626953 3 136.47344970703125
v 199.3003692626953 3 -159.32530212402344
v -196.49838256835938 3 -159.32530212402344
v -195.40646362304688 1.190944756278723e-14 -158.2333984375
v -195.40646362304688 -3.848835973644131e-15 135.38153076171875
v -196.49838256835938 3 136.47344970703125
vn 0.9396926168497417 -0.34202015414019754 7.001886026542746e-17
vn -5.641163328097285e-18 -1 -6.123234262925839e-17
vn 6.747790700640582e-17 -0.34202015414019754 0.9396926168497417
vn -6.978167118776386e-17 -0.34202015414019754 0.9396926168497417
vn 0.9396926168497417 -0.34202015414019754 7.001886026542746e-17
vn 0 -0.34202015414019754 -0.9396926168497417
vn 0 -0.34202015414019754 -0.9396926168497417
vn -5.641163328097285e-18 -1 -6.123234262925839e-17
vn 0 -1 -5.366989681855154e-17
vn 0.9396926168497417 -0.34202015414019754 7.001886026542746e-17
vn 6.747790700640582e-17 -0.34202015414019754 0.9396926168497417
vn 0 1 6.123234262925839e-17
vn 0 1 6.123234262925839e-17
vn 0.9396926168497417 -0.34202015414019754 -2.0942694414863748e-17
vn 0 -0.34202015414019754 -0.9396926168497417
vn 0 1 6.123234262925839e-17
vn 0 -0.34202015414019754 -0.9396926168497417
vn -0.9396926168497417 -0.34202015414019754 -1.112326975514935e-16
vn 0 1 6.123234262925839e-17
vn 0 1 6.123234262925839e-17
vn 0 -0.34202015414019754 -0.9396926168497417
vn 0 -1 -5.366989681855154e-17
vn -0.9396926168497417 -0.34202015414019754 -1.8356186665128823e-17
vn -0.9396926168497417 -0.34202015414019754 -1.112326975514935e-16
vn -5.641163328097285e-18 -1 -6.123234262925839e-17
vn -6.978167118776386e-17 -0.34202015414019754 0.9396926168497417
vn -0.9396926168497417 -0.34202015414019754 -1.8356186665128823e-17
vn 6.747790700640582e-17 -0.34202015414019754 0.9396926168497417
vn -0.9396926168497417 -0.34202015414019754 -1.8356186665128823e-17
vn -0.9396926168497417 -0.34202015414019754 -1.112326975514935e-16
vn 0 1 6.123234262925839e-17
f 1//1 2//5 3//10
f 3//10 2//5 4//14
f 4//15 2//6 5//17
f 5//17 2//7 6//21
f 1//2 7//25 2//8
f 2//9 7//25 6//22
f 3//11 8//28 1//3
f 1//4 8//28 7//26
f 7//27 8//29 6//23
f 6//24 8//30 5//18
f 8//31 3//12 5//19
f 5//20 3//13 4//16
