o wing1_1
usemtl Mat_1
v -253.1945343017578 150 -216.02146911621094
v 255.9965362548828 150 -216.02146911621094
v -198.5989990234375 9.88448740040079e-15 -161.42593383789062
v 201.4010009765625 9.88448740040079e-15 -161.42593383789062
v -198.5989990234375 9.689001513536917e-15 -158.2333984375
v -253.1945343017578 150 -212.8289337158203
v 255.9965362548828 150 -212.8289337158203
v 201.4010009765625 9.689001513536917e-15 -158.2333984375
vn 0 -0.34202015414019754 -0.9396926168497417
vn -0.9396926168497417 -0.34202015414019754 -2.0942694414863748e-17
vn 0 1 6.123234262925839e-17
vn 0 1 6.123234262925839e-17
vn 0 -0.34202015414019754 -0.9396926168497417
vn 0.9396926168497417 -0.34202015414019754 1.6710391351191593e-14
vn 0 1 6.123234262925839e-17
vn 0 -0.34202015414019754 -0.9396926168497417
vn -0.9396926168497417 -0.34202015414019754 -2.0942694414863748e-17
vn -0.9396926168497417 -0.34202015414019754 -2.0942694414863748e-17
vn 0 -1 -6.123234262925839e-17
vn 0 -0.34202015414019754 -0.9396926168497417
vn 0 -1 -6.123234262925839e-17
vn 0 -1 -6.123234262925839e-17
vn 0.9396926168497417 -0.34202015414019754 -2.0942694414863748e-17
vn 0.9396926168497417 -0.34202015414019754 1.6710391351191593e-14
vn -0.9396926168497417 -0.34202015414019754 -2.0942694414863748e-17
vn -6.676917865727847e-17 0.34202015414019754 0.9396926168497417
vn 0 -1 -6.123234262925839e-17
vn 0 -1 -6.123234262925839e-17
vn -0.9396926168497417 -0.34202015414019754 -2.0942694414863748e-17
vn 0 0.34202015414019754 0.9396926168497417
vn -6.676917865727847e-17 0.34202015414019754 0.9396926168497417
vn 0 1 6.123234262925839e-17
vn 0 0.34202015414019754 0.9396926168497417
vn 0.9396926168497417 -0.34202015414019754 -2.0942694414863748e-17
vn 0.9396926168497417 -0.34202015414019754 1.6710391351191593e-14
vn 0 1 6.123234262925839e-17
vn 0 1 6.123234262925839e-17
vn 0 0.34202015414019754 0.9396926168497417
vn 0 -1 -6.123234262925839e-17
vn 0.9396926168497417 -0.34202015414019754 -2.0942694414863748e-17
f 1//1 2//5 3//8
f 3//8 2//5 4//12
f 5//17 6//21 3//9
f 3//10 6//21 1//2
f 7//25 6//22 8//30
f 8//30 6//23 5//18
f 8//31 5//19 4//13
f 4//14 5//20 3//11
f 8//32 4//15 7//26
f 7//27 4//16 2//6
f 6//24 7//28 1//3
f 1//4 7//29 2//7
